<mxfile host="app.diagrams.net" modified="2022-10-23T14:37:53.783Z" agent="5.0 (Windows NT 10.0; Win64; x64) AppleWebKit/537.36 (KHTML, like Gecko) Chrome/105.0.0.0 Safari/537.36 OPR/91.0.4516.95" etag="HDQmfyWIaEOUzPB4km7v" version="20.5.0" type="github">
  <diagram id="l2XuAp3Q86q-zVdVSw0r" name="PÃ¡gina-1">
    <mxGraphModel dx="1067" dy="444" grid="1" gridSize="10" guides="1" tooltips="1" connect="1" arrows="1" fold="1" page="1" pageScale="1" pageWidth="827" pageHeight="1169" math="0" shadow="0">
      <root>
        <mxCell id="0" />
        <mxCell id="1" parent="0" />
        <mxCell id="VYHDniG5B-FyVY8hQCb8-1" value="Bus" style="rounded=1;whiteSpace=wrap;html=1;" vertex="1" parent="1">
          <mxGeometry x="480" y="240" width="70" height="30" as="geometry" />
        </mxCell>
        <mxCell id="VYHDniG5B-FyVY8hQCb8-2" value="id" style="ellipse;whiteSpace=wrap;html=1;fillColor=#000000;" vertex="1" parent="1">
          <mxGeometry x="450" y="170" width="40" height="30" as="geometry" />
        </mxCell>
      </root>
    </mxGraphModel>
  </diagram>
</mxfile>
